G04*
G04 #@! TF.GenerationSoftware,Altium Limited,Altium Designer,19.1.6 (110)*
G04*
G04 Layer_Color=16711935*
%FSLAX43Y43*%
%MOMM*%
G71*
G01*
G75*
%ADD52C,2.000*%
%ADD53R,2.000X2.000*%
%ADD54R,2.000X2.000*%
%ADD55C,2.600*%
%ADD56R,2.600X2.600*%
%ADD57C,1.130*%
%ADD58C,6.100*%
%ADD59C,0.700*%
D52*
X68750Y6138D02*
D03*
X71250D02*
D03*
X73750D02*
D03*
X80000Y61110D02*
D03*
Y63650D02*
D03*
Y66190D02*
D03*
Y68730D02*
D03*
Y71270D02*
D03*
Y76350D02*
D03*
Y73810D02*
D03*
X55000Y61110D02*
D03*
Y63650D02*
D03*
Y66190D02*
D03*
Y68730D02*
D03*
Y71270D02*
D03*
Y76350D02*
D03*
Y73810D02*
D03*
X30000Y61110D02*
D03*
Y63650D02*
D03*
Y66190D02*
D03*
Y68730D02*
D03*
Y71270D02*
D03*
Y76350D02*
D03*
Y73810D02*
D03*
X60000Y61110D02*
D03*
Y63650D02*
D03*
Y66190D02*
D03*
Y68730D02*
D03*
Y71270D02*
D03*
Y76350D02*
D03*
Y73810D02*
D03*
X35000Y61110D02*
D03*
Y63650D02*
D03*
Y66190D02*
D03*
Y68730D02*
D03*
Y71270D02*
D03*
Y76350D02*
D03*
Y73810D02*
D03*
X10000Y61110D02*
D03*
Y63650D02*
D03*
Y66190D02*
D03*
Y68730D02*
D03*
Y71270D02*
D03*
Y76350D02*
D03*
Y73810D02*
D03*
X82400Y38000D02*
D03*
X84945Y38005D02*
D03*
X82400Y40800D02*
D03*
X84945Y40805D02*
D03*
X82400Y43600D02*
D03*
X84945Y43605D02*
D03*
X82400Y46400D02*
D03*
X84945Y46405D02*
D03*
X82400Y49200D02*
D03*
X84945Y49205D02*
D03*
X82400Y52000D02*
D03*
X84945Y52005D02*
D03*
X20001Y6137D02*
D03*
X22501D02*
D03*
X43730Y4000D02*
D03*
X41190D02*
D03*
X46270D02*
D03*
X48810D02*
D03*
X51350D02*
D03*
D53*
X66250Y6138D02*
D03*
X79860Y38000D02*
D03*
Y40800D02*
D03*
Y43600D02*
D03*
Y46400D02*
D03*
Y49200D02*
D03*
X79860Y52000D02*
D03*
X17501Y6137D02*
D03*
X38650Y4000D02*
D03*
D54*
X80000Y78890D02*
D03*
X55000D02*
D03*
X30000D02*
D03*
X60000D02*
D03*
X35000D02*
D03*
X10000D02*
D03*
D55*
X10850Y42900D02*
D03*
Y47100D02*
D03*
X5350D02*
D03*
D56*
Y42900D02*
D03*
D57*
X29550Y47690D02*
D03*
Y42810D02*
D03*
D58*
X4500Y85500D02*
D03*
X4500Y4500D02*
D03*
X85500D02*
D03*
X85500Y85500D02*
D03*
D59*
X18700Y53200D02*
D03*
X10400Y22000D02*
D03*
X10410Y22900D02*
D03*
X11310D02*
D03*
Y22000D02*
D03*
Y21100D02*
D03*
X10410D02*
D03*
X9510D02*
D03*
Y22000D02*
D03*
Y22900D02*
D03*
Y20100D02*
D03*
X10410D02*
D03*
X11310D02*
D03*
X9510Y23900D02*
D03*
X10410D02*
D03*
X11310D02*
D03*
X19400Y53200D02*
D03*
X20100D02*
D03*
X20800D02*
D03*
X21500D02*
D03*
M02*
