G04*
G04 #@! TF.GenerationSoftware,Altium Limited,Altium Designer,19.1.6 (110)*
G04*
G04 Layer_Color=32896*
%FSLAX43Y43*%
%MOMM*%
G71*
G01*
G75*
G36*
X88754Y73674D02*
X88806Y73671D01*
X88856Y73663D01*
X88902Y73654D01*
X88945Y73643D01*
X88983Y73632D01*
X89020Y73619D01*
X89052Y73604D01*
X89082Y73591D01*
X89107Y73578D01*
X89130Y73567D01*
X89146Y73556D01*
X89161Y73546D01*
X89172Y73539D01*
X89178Y73535D01*
X89180Y73533D01*
X89207Y73509D01*
X89230Y73483D01*
X89250Y73458D01*
X89269Y73430D01*
X89283Y73402D01*
X89296Y73376D01*
X89306Y73350D01*
X89315Y73324D01*
X89320Y73300D01*
X89326Y73278D01*
X89328Y73258D01*
X89332Y73241D01*
Y73226D01*
X89333Y73217D01*
Y73208D01*
X89332Y73178D01*
X89330Y73150D01*
X89319Y73098D01*
X89304Y73052D01*
X89294Y73032D01*
X89285Y73013D01*
X89276Y72996D01*
X89267Y72982D01*
X89259Y72969D01*
X89252Y72959D01*
X89246Y72950D01*
X89241Y72945D01*
X89239Y72941D01*
X89237Y72939D01*
X89217Y72919D01*
X89196Y72900D01*
X89148Y72869D01*
X89096Y72841D01*
X89046Y72819D01*
X89022Y72809D01*
X89000Y72802D01*
X88980Y72797D01*
X88963Y72791D01*
X88948Y72787D01*
X88937Y72784D01*
X88930Y72782D01*
X88928D01*
X88850Y72984D01*
X88900Y72995D01*
X88941Y73009D01*
X88976Y73022D01*
X89004Y73037D01*
X89026Y73050D01*
X89041Y73061D01*
X89050Y73069D01*
X89054Y73071D01*
X89074Y73093D01*
X89091Y73117D01*
X89102Y73141D01*
X89109Y73163D01*
X89113Y73182D01*
X89115Y73198D01*
X89117Y73208D01*
Y73211D01*
X89115Y73232D01*
X89113Y73250D01*
X89102Y73287D01*
X89085Y73317D01*
X89067Y73343D01*
X89050Y73365D01*
X89033Y73380D01*
X89022Y73389D01*
X89020Y73393D01*
X89019D01*
X88998Y73404D01*
X88976Y73415D01*
X88950Y73424D01*
X88924Y73432D01*
X88869Y73445D01*
X88813Y73452D01*
X88787Y73456D01*
X88763Y73458D01*
X88741Y73459D01*
X88722D01*
X88706Y73461D01*
X88695D01*
X88685D01*
X88683D01*
X88643D01*
X88604Y73458D01*
X88569Y73454D01*
X88537Y73450D01*
X88508Y73445D01*
X88480Y73439D01*
X88456Y73433D01*
X88435Y73426D01*
X88417Y73419D01*
X88400Y73413D01*
X88387Y73408D01*
X88376Y73402D01*
X88369Y73396D01*
X88361Y73395D01*
X88359Y73391D01*
X88358D01*
X88339Y73376D01*
X88324Y73361D01*
X88311Y73346D01*
X88300Y73332D01*
X88282Y73300D01*
X88271Y73271D01*
X88263Y73245D01*
X88259Y73224D01*
X88258Y73217D01*
Y73206D01*
X88259Y73176D01*
X88267Y73150D01*
X88274Y73128D01*
X88285Y73108D01*
X88295Y73091D01*
X88304Y73078D01*
X88311Y73071D01*
X88313Y73069D01*
X88335Y73048D01*
X88359Y73032D01*
X88385Y73017D01*
X88411Y73006D01*
X88433Y72998D01*
X88452Y72993D01*
X88459Y72991D01*
X88465D01*
X88467Y72989D01*
X88469D01*
X88409Y72784D01*
X88380Y72791D01*
X88352Y72800D01*
X88326Y72809D01*
X88300Y72819D01*
X88278Y72830D01*
X88258Y72839D01*
X88241Y72850D01*
X88224Y72859D01*
X88209Y72869D01*
X88196Y72878D01*
X88185Y72885D01*
X88176Y72893D01*
X88171Y72898D01*
X88165Y72902D01*
X88161Y72904D01*
Y72906D01*
X88141Y72928D01*
X88122Y72952D01*
X88106Y72976D01*
X88091Y73000D01*
X88080Y73024D01*
X88071Y73048D01*
X88056Y73095D01*
X88050Y73115D01*
X88046Y73134D01*
X88045Y73150D01*
X88043Y73165D01*
X88041Y73178D01*
Y73195D01*
X88043Y73234D01*
X88048Y73271D01*
X88056Y73304D01*
X88065Y73337D01*
X88078Y73367D01*
X88091Y73395D01*
X88106Y73421D01*
X88119Y73443D01*
X88133Y73463D01*
X88148Y73482D01*
X88161Y73496D01*
X88174Y73509D01*
X88183Y73519D01*
X88191Y73526D01*
X88196Y73530D01*
X88198Y73532D01*
X88233Y73558D01*
X88272Y73580D01*
X88311Y73598D01*
X88352Y73615D01*
X88395Y73630D01*
X88435Y73641D01*
X88476Y73650D01*
X88517Y73658D01*
X88554Y73663D01*
X88587Y73669D01*
X88619Y73672D01*
X88646Y73674D01*
X88667D01*
X88683Y73676D01*
X88695D01*
X88696D01*
X88698D01*
X88754Y73674D01*
D02*
G37*
G36*
X89313Y72395D02*
X88272D01*
Y71989D01*
X89313D01*
Y71782D01*
X88061D01*
Y72602D01*
X89313D01*
Y72395D01*
D02*
G37*
G36*
Y71063D02*
X89311Y71028D01*
X89307Y70995D01*
X89302Y70965D01*
X89294Y70937D01*
X89287Y70913D01*
X89278Y70891D01*
X89267Y70871D01*
X89256Y70852D01*
X89246Y70837D01*
X89235Y70823D01*
X89226Y70812D01*
X89217Y70802D01*
X89211Y70797D01*
X89206Y70791D01*
X89202Y70787D01*
X89200D01*
X89178Y70773D01*
X89156Y70760D01*
X89111Y70741D01*
X89069Y70726D01*
X89028Y70715D01*
X89009Y70713D01*
X88991Y70710D01*
X88976Y70708D01*
X88963D01*
X88954Y70706D01*
X88946D01*
X88941D01*
X88939D01*
X88907Y70708D01*
X88878Y70710D01*
X88822Y70721D01*
X88798Y70728D01*
X88776Y70736D01*
X88756Y70745D01*
X88737Y70754D01*
X88720Y70763D01*
X88706Y70773D01*
X88693Y70780D01*
X88682Y70787D01*
X88674Y70793D01*
X88669Y70799D01*
X88665Y70800D01*
X88663Y70802D01*
X88645Y70821D01*
X88628Y70841D01*
X88615Y70862D01*
X88604Y70884D01*
X88585Y70926D01*
X88572Y70969D01*
X88565Y71006D01*
X88563Y71023D01*
X88561Y71036D01*
X88559Y71047D01*
Y71356D01*
X88272D01*
Y70795D01*
X88061D01*
Y71563D01*
X89313D01*
Y71063D01*
D02*
G37*
G36*
Y70328D02*
X88272D01*
Y69923D01*
X89313D01*
Y69715D01*
X88061D01*
Y70536D01*
X89313D01*
Y70328D01*
D02*
G37*
G36*
X88961Y69230D02*
X88998Y69241D01*
X89028Y69252D01*
X89050Y69262D01*
X89069Y69271D01*
X89083Y69280D01*
X89091Y69286D01*
X89096Y69289D01*
X89098Y69291D01*
X89107Y69304D01*
X89115Y69321D01*
X89120Y69338D01*
X89124Y69354D01*
X89126Y69371D01*
X89128Y69384D01*
Y69419D01*
X89126Y69445D01*
Y69473D01*
X89313D01*
X89322Y69425D01*
X89324Y69401D01*
X89326Y69378D01*
X89328Y69358D01*
Y69330D01*
X89324Y69299D01*
X89317Y69271D01*
X89306Y69247D01*
X89293Y69227D01*
X89280Y69210D01*
X89269Y69197D01*
X89261Y69188D01*
X89257Y69186D01*
X89243Y69175D01*
X89226Y69164D01*
X89189Y69141D01*
X89150Y69121D01*
X89109Y69101D01*
X89072Y69086D01*
X89056Y69078D01*
X89041Y69073D01*
X89030Y69067D01*
X89020Y69065D01*
X89015Y69062D01*
X89013D01*
X88061Y68715D01*
Y68930D01*
X88711Y69138D01*
X88061Y69377D01*
Y69608D01*
X88961Y69230D01*
D02*
G37*
G36*
X89313Y68417D02*
X89072D01*
Y68614D01*
X89313D01*
Y68417D01*
D02*
G37*
G36*
X89039Y68254D02*
X89089Y68241D01*
X89113Y68232D01*
X89133Y68223D01*
X89154Y68214D01*
X89170Y68204D01*
X89187Y68195D01*
X89200Y68186D01*
X89211Y68178D01*
X89222Y68171D01*
X89230Y68166D01*
X89235Y68160D01*
X89237Y68158D01*
X89239Y68156D01*
X89256Y68138D01*
X89270Y68119D01*
X89283Y68101D01*
X89293Y68080D01*
X89311Y68041D01*
X89322Y68006D01*
X89328Y67975D01*
X89330Y67960D01*
X89332Y67949D01*
X89333Y67940D01*
Y67927D01*
X89332Y67901D01*
X89328Y67877D01*
X89322Y67853D01*
X89317Y67829D01*
X89298Y67788D01*
X89278Y67753D01*
X89257Y67723D01*
X89248Y67712D01*
X89239Y67703D01*
X89233Y67695D01*
X89228Y67688D01*
X89224Y67686D01*
X89222Y67684D01*
X89200Y67666D01*
X89178Y67649D01*
X89154Y67636D01*
X89130Y67625D01*
X89083Y67606D01*
X89039Y67593D01*
X89017Y67590D01*
X88998Y67586D01*
X88982Y67584D01*
X88967Y67582D01*
X88956Y67580D01*
X88946D01*
X88941D01*
X88939D01*
X88896Y67582D01*
X88857Y67590D01*
X88824Y67597D01*
X88796Y67608D01*
X88774Y67617D01*
X88757Y67627D01*
X88746Y67634D01*
X88743Y67636D01*
X88715Y67658D01*
X88693Y67680D01*
X88676Y67703D01*
X88661Y67725D01*
X88652Y67745D01*
X88646Y67760D01*
X88643Y67771D01*
X88641Y67773D01*
Y67775D01*
X88622Y67749D01*
X88602Y67727D01*
X88582Y67706D01*
X88565Y67691D01*
X88548Y67679D01*
X88537Y67671D01*
X88530Y67666D01*
X88526Y67664D01*
X88500Y67651D01*
X88474Y67642D01*
X88450Y67634D01*
X88426Y67630D01*
X88408Y67627D01*
X88391Y67625D01*
X88382D01*
X88378D01*
X88356D01*
X88333Y67629D01*
X88293Y67638D01*
X88256Y67651D01*
X88222Y67666D01*
X88195Y67682D01*
X88183Y67690D01*
X88174Y67695D01*
X88167Y67701D01*
X88161Y67704D01*
X88159Y67706D01*
X88158Y67708D01*
X88139Y67725D01*
X88124Y67741D01*
X88111Y67760D01*
X88100Y67779D01*
X88082Y67816D01*
X88071Y67851D01*
X88063Y67884D01*
X88061Y67897D01*
X88059Y67908D01*
X88058Y67919D01*
Y67954D01*
X88061Y67977D01*
X88071Y68017D01*
X88083Y68054D01*
X88096Y68084D01*
X88111Y68108D01*
X88124Y68127D01*
X88133Y68138D01*
X88135Y68140D01*
X88137Y68141D01*
X88152Y68156D01*
X88171Y68169D01*
X88209Y68193D01*
X88250Y68212D01*
X88291Y68227D01*
X88328Y68238D01*
X88343Y68241D01*
X88358Y68245D01*
X88369Y68247D01*
X88378Y68249D01*
X88383Y68251D01*
X88385D01*
X88422Y68069D01*
X88393Y68066D01*
X88369Y68060D01*
X88346Y68053D01*
X88330Y68045D01*
X88317Y68038D01*
X88306Y68032D01*
X88300Y68029D01*
X88298Y68027D01*
X88283Y68012D01*
X88274Y67997D01*
X88267Y67982D01*
X88261Y67969D01*
X88258Y67958D01*
X88256Y67947D01*
Y67940D01*
X88258Y67921D01*
X88261Y67904D01*
X88267Y67890D01*
X88274Y67879D01*
X88282Y67869D01*
X88287Y67862D01*
X88291Y67858D01*
X88293Y67856D01*
X88308Y67845D01*
X88324Y67838D01*
X88341Y67830D01*
X88356Y67827D01*
X88370Y67825D01*
X88382Y67823D01*
X88389D01*
X88393D01*
X88420Y67825D01*
X88445Y67830D01*
X88465Y67838D01*
X88482Y67845D01*
X88495Y67853D01*
X88506Y67860D01*
X88511Y67866D01*
X88513Y67867D01*
X88526Y67886D01*
X88537Y67904D01*
X88543Y67925D01*
X88548Y67945D01*
X88550Y67962D01*
X88552Y67977D01*
Y67990D01*
X88748Y68010D01*
X88743Y67991D01*
X88737Y67975D01*
X88733Y67958D01*
X88732Y67945D01*
X88730Y67936D01*
Y67921D01*
X88732Y67901D01*
X88737Y67882D01*
X88746Y67866D01*
X88756Y67851D01*
X88767Y67840D01*
X88774Y67830D01*
X88782Y67825D01*
X88783Y67823D01*
X88804Y67810D01*
X88828Y67799D01*
X88852Y67791D01*
X88874Y67788D01*
X88895Y67784D01*
X88911Y67782D01*
X88922D01*
X88924D01*
X88926D01*
X88961Y67784D01*
X88991Y67790D01*
X89019Y67795D01*
X89039Y67803D01*
X89057Y67812D01*
X89069Y67817D01*
X89078Y67823D01*
X89080Y67825D01*
X89098Y67841D01*
X89111Y67858D01*
X89120Y67877D01*
X89126Y67893D01*
X89130Y67906D01*
X89133Y67917D01*
Y67929D01*
X89132Y67949D01*
X89126Y67967D01*
X89119Y67984D01*
X89109Y67997D01*
X89102Y68008D01*
X89094Y68017D01*
X89089Y68023D01*
X89087Y68025D01*
X89069Y68038D01*
X89046Y68049D01*
X89024Y68058D01*
X89002Y68064D01*
X88982Y68069D01*
X88967Y68071D01*
X88956Y68073D01*
X88954D01*
X88952D01*
X88980Y68264D01*
X89039Y68254D01*
D02*
G37*
G36*
Y67456D02*
X89089Y67443D01*
X89113Y67434D01*
X89133Y67425D01*
X89154Y67416D01*
X89170Y67406D01*
X89187Y67397D01*
X89200Y67388D01*
X89211Y67380D01*
X89222Y67373D01*
X89230Y67367D01*
X89235Y67362D01*
X89237Y67360D01*
X89239Y67358D01*
X89256Y67340D01*
X89270Y67321D01*
X89283Y67303D01*
X89293Y67282D01*
X89311Y67243D01*
X89322Y67208D01*
X89328Y67177D01*
X89330Y67162D01*
X89332Y67151D01*
X89333Y67142D01*
Y67129D01*
X89332Y67103D01*
X89328Y67079D01*
X89322Y67055D01*
X89317Y67030D01*
X89298Y66990D01*
X89278Y66955D01*
X89257Y66925D01*
X89248Y66914D01*
X89239Y66905D01*
X89233Y66897D01*
X89228Y66890D01*
X89224Y66888D01*
X89222Y66886D01*
X89200Y66868D01*
X89178Y66851D01*
X89154Y66838D01*
X89130Y66827D01*
X89083Y66808D01*
X89039Y66795D01*
X89017Y66792D01*
X88998Y66788D01*
X88982Y66786D01*
X88967Y66784D01*
X88956Y66782D01*
X88946D01*
X88941D01*
X88939D01*
X88896Y66784D01*
X88857Y66792D01*
X88824Y66799D01*
X88796Y66810D01*
X88774Y66819D01*
X88757Y66829D01*
X88746Y66836D01*
X88743Y66838D01*
X88715Y66860D01*
X88693Y66882D01*
X88676Y66905D01*
X88661Y66927D01*
X88652Y66947D01*
X88646Y66962D01*
X88643Y66973D01*
X88641Y66975D01*
Y66977D01*
X88622Y66951D01*
X88602Y66929D01*
X88582Y66908D01*
X88565Y66893D01*
X88548Y66880D01*
X88537Y66873D01*
X88530Y66868D01*
X88526Y66866D01*
X88500Y66853D01*
X88474Y66843D01*
X88450Y66836D01*
X88426Y66832D01*
X88408Y66829D01*
X88391Y66827D01*
X88382D01*
X88378D01*
X88356D01*
X88333Y66830D01*
X88293Y66840D01*
X88256Y66853D01*
X88222Y66868D01*
X88195Y66884D01*
X88183Y66892D01*
X88174Y66897D01*
X88167Y66903D01*
X88161Y66906D01*
X88159Y66908D01*
X88158Y66910D01*
X88139Y66927D01*
X88124Y66943D01*
X88111Y66962D01*
X88100Y66980D01*
X88082Y67017D01*
X88071Y67053D01*
X88063Y67086D01*
X88061Y67099D01*
X88059Y67110D01*
X88058Y67121D01*
Y67156D01*
X88061Y67179D01*
X88071Y67219D01*
X88083Y67256D01*
X88096Y67286D01*
X88111Y67310D01*
X88124Y67329D01*
X88133Y67340D01*
X88135Y67342D01*
X88137Y67343D01*
X88152Y67358D01*
X88171Y67371D01*
X88209Y67395D01*
X88250Y67414D01*
X88291Y67429D01*
X88328Y67440D01*
X88343Y67443D01*
X88358Y67447D01*
X88369Y67449D01*
X88378Y67451D01*
X88383Y67453D01*
X88385D01*
X88422Y67271D01*
X88393Y67267D01*
X88369Y67262D01*
X88346Y67255D01*
X88330Y67247D01*
X88317Y67240D01*
X88306Y67234D01*
X88300Y67230D01*
X88298Y67229D01*
X88283Y67214D01*
X88274Y67199D01*
X88267Y67184D01*
X88261Y67171D01*
X88258Y67160D01*
X88256Y67149D01*
Y67142D01*
X88258Y67123D01*
X88261Y67106D01*
X88267Y67092D01*
X88274Y67080D01*
X88282Y67071D01*
X88287Y67064D01*
X88291Y67060D01*
X88293Y67058D01*
X88308Y67047D01*
X88324Y67040D01*
X88341Y67032D01*
X88356Y67029D01*
X88370Y67027D01*
X88382Y67025D01*
X88389D01*
X88393D01*
X88420Y67027D01*
X88445Y67032D01*
X88465Y67040D01*
X88482Y67047D01*
X88495Y67055D01*
X88506Y67062D01*
X88511Y67067D01*
X88513Y67069D01*
X88526Y67088D01*
X88537Y67106D01*
X88543Y67127D01*
X88548Y67147D01*
X88550Y67164D01*
X88552Y67179D01*
Y67192D01*
X88748Y67212D01*
X88743Y67193D01*
X88737Y67177D01*
X88733Y67160D01*
X88732Y67147D01*
X88730Y67138D01*
Y67123D01*
X88732Y67103D01*
X88737Y67084D01*
X88746Y67067D01*
X88756Y67053D01*
X88767Y67042D01*
X88774Y67032D01*
X88782Y67027D01*
X88783Y67025D01*
X88804Y67012D01*
X88828Y67001D01*
X88852Y66993D01*
X88874Y66990D01*
X88895Y66986D01*
X88911Y66984D01*
X88922D01*
X88924D01*
X88926D01*
X88961Y66986D01*
X88991Y66992D01*
X89019Y66997D01*
X89039Y67005D01*
X89057Y67014D01*
X89069Y67019D01*
X89078Y67025D01*
X89080Y67027D01*
X89098Y67043D01*
X89111Y67060D01*
X89120Y67079D01*
X89126Y67095D01*
X89130Y67108D01*
X89133Y67119D01*
Y67130D01*
X89132Y67151D01*
X89126Y67169D01*
X89119Y67186D01*
X89109Y67199D01*
X89102Y67210D01*
X89094Y67219D01*
X89089Y67225D01*
X89087Y67227D01*
X89069Y67240D01*
X89046Y67251D01*
X89024Y67260D01*
X89002Y67266D01*
X88982Y67271D01*
X88967Y67273D01*
X88956Y67275D01*
X88954D01*
X88952D01*
X88980Y67466D01*
X89039Y67456D01*
D02*
G37*
G36*
Y66658D02*
X89089Y66645D01*
X89113Y66636D01*
X89133Y66627D01*
X89154Y66618D01*
X89170Y66608D01*
X89187Y66599D01*
X89200Y66590D01*
X89211Y66582D01*
X89222Y66575D01*
X89230Y66569D01*
X89235Y66564D01*
X89237Y66562D01*
X89239Y66560D01*
X89256Y66542D01*
X89270Y66523D01*
X89283Y66505D01*
X89293Y66484D01*
X89311Y66445D01*
X89322Y66410D01*
X89328Y66379D01*
X89330Y66364D01*
X89332Y66353D01*
X89333Y66343D01*
Y66331D01*
X89332Y66305D01*
X89328Y66281D01*
X89322Y66256D01*
X89317Y66232D01*
X89298Y66192D01*
X89278Y66156D01*
X89257Y66127D01*
X89248Y66116D01*
X89239Y66106D01*
X89233Y66099D01*
X89228Y66092D01*
X89224Y66090D01*
X89222Y66088D01*
X89200Y66069D01*
X89178Y66053D01*
X89154Y66040D01*
X89130Y66029D01*
X89083Y66010D01*
X89039Y65997D01*
X89017Y65994D01*
X88998Y65990D01*
X88982Y65988D01*
X88967Y65986D01*
X88956Y65984D01*
X88946D01*
X88941D01*
X88939D01*
X88896Y65986D01*
X88857Y65994D01*
X88824Y66001D01*
X88796Y66012D01*
X88774Y66021D01*
X88757Y66031D01*
X88746Y66038D01*
X88743Y66040D01*
X88715Y66062D01*
X88693Y66084D01*
X88676Y66106D01*
X88661Y66129D01*
X88652Y66149D01*
X88646Y66164D01*
X88643Y66175D01*
X88641Y66177D01*
Y66179D01*
X88622Y66153D01*
X88602Y66131D01*
X88582Y66110D01*
X88565Y66095D01*
X88548Y66082D01*
X88537Y66075D01*
X88530Y66069D01*
X88526Y66068D01*
X88500Y66055D01*
X88474Y66045D01*
X88450Y66038D01*
X88426Y66034D01*
X88408Y66031D01*
X88391Y66029D01*
X88382D01*
X88378D01*
X88356D01*
X88333Y66032D01*
X88293Y66042D01*
X88256Y66055D01*
X88222Y66069D01*
X88195Y66086D01*
X88183Y66094D01*
X88174Y66099D01*
X88167Y66105D01*
X88161Y66108D01*
X88159Y66110D01*
X88158Y66112D01*
X88139Y66129D01*
X88124Y66145D01*
X88111Y66164D01*
X88100Y66182D01*
X88082Y66219D01*
X88071Y66255D01*
X88063Y66288D01*
X88061Y66301D01*
X88059Y66312D01*
X88058Y66323D01*
Y66358D01*
X88061Y66381D01*
X88071Y66421D01*
X88083Y66458D01*
X88096Y66488D01*
X88111Y66512D01*
X88124Y66531D01*
X88133Y66542D01*
X88135Y66543D01*
X88137Y66545D01*
X88152Y66560D01*
X88171Y66573D01*
X88209Y66597D01*
X88250Y66616D01*
X88291Y66630D01*
X88328Y66642D01*
X88343Y66645D01*
X88358Y66649D01*
X88369Y66651D01*
X88378Y66653D01*
X88383Y66655D01*
X88385D01*
X88422Y66473D01*
X88393Y66469D01*
X88369Y66464D01*
X88346Y66456D01*
X88330Y66449D01*
X88317Y66442D01*
X88306Y66436D01*
X88300Y66432D01*
X88298Y66431D01*
X88283Y66416D01*
X88274Y66401D01*
X88267Y66386D01*
X88261Y66373D01*
X88258Y66362D01*
X88256Y66351D01*
Y66343D01*
X88258Y66325D01*
X88261Y66308D01*
X88267Y66293D01*
X88274Y66282D01*
X88282Y66273D01*
X88287Y66266D01*
X88291Y66262D01*
X88293Y66260D01*
X88308Y66249D01*
X88324Y66242D01*
X88341Y66234D01*
X88356Y66231D01*
X88370Y66229D01*
X88382Y66227D01*
X88389D01*
X88393D01*
X88420Y66229D01*
X88445Y66234D01*
X88465Y66242D01*
X88482Y66249D01*
X88495Y66256D01*
X88506Y66264D01*
X88511Y66269D01*
X88513Y66271D01*
X88526Y66290D01*
X88537Y66308D01*
X88543Y66329D01*
X88548Y66349D01*
X88550Y66366D01*
X88552Y66381D01*
Y66393D01*
X88748Y66414D01*
X88743Y66395D01*
X88737Y66379D01*
X88733Y66362D01*
X88732Y66349D01*
X88730Y66340D01*
Y66325D01*
X88732Y66305D01*
X88737Y66286D01*
X88746Y66269D01*
X88756Y66255D01*
X88767Y66243D01*
X88774Y66234D01*
X88782Y66229D01*
X88783Y66227D01*
X88804Y66214D01*
X88828Y66203D01*
X88852Y66195D01*
X88874Y66192D01*
X88895Y66188D01*
X88911Y66186D01*
X88922D01*
X88924D01*
X88926D01*
X88961Y66188D01*
X88991Y66193D01*
X89019Y66199D01*
X89039Y66206D01*
X89057Y66216D01*
X89069Y66221D01*
X89078Y66227D01*
X89080Y66229D01*
X89098Y66245D01*
X89111Y66262D01*
X89120Y66281D01*
X89126Y66297D01*
X89130Y66310D01*
X89133Y66321D01*
Y66332D01*
X89132Y66353D01*
X89126Y66371D01*
X89119Y66388D01*
X89109Y66401D01*
X89102Y66412D01*
X89094Y66421D01*
X89089Y66427D01*
X89087Y66429D01*
X89069Y66442D01*
X89046Y66453D01*
X89024Y66462D01*
X89002Y66468D01*
X88982Y66473D01*
X88967Y66475D01*
X88956Y66477D01*
X88954D01*
X88952D01*
X88980Y66668D01*
X89039Y66658D01*
D02*
G37*
G36*
X88565Y65758D02*
X88537Y65708D01*
X88506Y65666D01*
X88476Y65629D01*
X88463Y65612D01*
X88450Y65597D01*
X88437Y65584D01*
X88428Y65575D01*
X88419Y65566D01*
X88413Y65560D01*
X88409Y65557D01*
X88408Y65555D01*
X89313D01*
Y65357D01*
X88058D01*
Y65518D01*
X88098Y65532D01*
X88135Y65551D01*
X88169Y65571D01*
X88196Y65592D01*
X88221Y65610D01*
X88239Y65625D01*
X88250Y65636D01*
X88252Y65638D01*
X88254Y65640D01*
X88283Y65673D01*
X88308Y65705D01*
X88328Y65732D01*
X88345Y65758D01*
X88356Y65781D01*
X88365Y65795D01*
X88369Y65807D01*
X88370Y65808D01*
Y65810D01*
X88589D01*
X88565Y65758D01*
D02*
G37*
G36*
X89048Y65051D02*
X89076Y65044D01*
X89100Y65036D01*
X89122Y65027D01*
X89143Y65018D01*
X89163Y65008D01*
X89180Y64999D01*
X89194Y64990D01*
X89207Y64981D01*
X89219Y64973D01*
X89228Y64966D01*
X89235Y64960D01*
X89241Y64955D01*
X89243Y64953D01*
X89244Y64951D01*
X89259Y64933D01*
X89274Y64914D01*
X89296Y64877D01*
X89311Y64838D01*
X89322Y64803D01*
X89328Y64771D01*
X89332Y64757D01*
Y64745D01*
X89333Y64736D01*
Y64723D01*
X89332Y64692D01*
X89328Y64664D01*
X89320Y64636D01*
X89311Y64612D01*
X89302Y64588D01*
X89291Y64568D01*
X89278Y64547D01*
X89265Y64531D01*
X89252Y64516D01*
X89239Y64501D01*
X89228Y64490D01*
X89219Y64481D01*
X89209Y64473D01*
X89202Y64468D01*
X89198Y64466D01*
X89196Y64464D01*
X89170Y64447D01*
X89143Y64433D01*
X89117Y64421D01*
X89091Y64410D01*
X89039Y64394D01*
X88993Y64383D01*
X88970Y64379D01*
X88952Y64377D01*
X88935Y64373D01*
X88920D01*
X88909Y64371D01*
X88900D01*
X88895D01*
X88893D01*
X88856Y64373D01*
X88820Y64375D01*
X88789Y64381D01*
X88757Y64388D01*
X88730Y64396D01*
X88702Y64405D01*
X88678Y64416D01*
X88656Y64425D01*
X88637Y64434D01*
X88620Y64446D01*
X88606Y64455D01*
X88593Y64462D01*
X88583Y64470D01*
X88576Y64473D01*
X88572Y64477D01*
X88570Y64479D01*
X88554Y64496D01*
X88539Y64512D01*
X88526Y64529D01*
X88515Y64547D01*
X88498Y64583D01*
X88485Y64614D01*
X88480Y64644D01*
X88478Y64655D01*
X88476Y64666D01*
X88474Y64675D01*
Y64686D01*
X88476Y64712D01*
X88482Y64736D01*
X88487Y64758D01*
X88495Y64779D01*
X88504Y64797D01*
X88509Y64810D01*
X88515Y64818D01*
X88517Y64821D01*
X88302Y64788D01*
Y64418D01*
X88078D01*
Y64938D01*
X88730Y65038D01*
X88757Y64879D01*
X88741Y64866D01*
X88728Y64853D01*
X88715Y64840D01*
X88706Y64827D01*
X88689Y64801D01*
X88678Y64777D01*
X88672Y64757D01*
X88669Y64742D01*
X88667Y64731D01*
Y64727D01*
X88669Y64703D01*
X88676Y64683D01*
X88685Y64662D01*
X88695Y64647D01*
X88706Y64634D01*
X88715Y64625D01*
X88722Y64620D01*
X88724Y64618D01*
X88748Y64603D01*
X88774Y64592D01*
X88804Y64584D01*
X88832Y64579D01*
X88857Y64575D01*
X88878Y64573D01*
X88887D01*
X88893D01*
X88896D01*
X88898D01*
X88941Y64575D01*
X88980Y64581D01*
X89011Y64588D01*
X89037Y64596D01*
X89056Y64603D01*
X89070Y64610D01*
X89078Y64616D01*
X89082Y64618D01*
X89102Y64634D01*
X89115Y64651D01*
X89126Y64670D01*
X89133Y64686D01*
X89137Y64699D01*
X89139Y64710D01*
X89141Y64720D01*
Y64721D01*
X89139Y64740D01*
X89133Y64757D01*
X89126Y64773D01*
X89117Y64786D01*
X89109Y64797D01*
X89102Y64807D01*
X89096Y64812D01*
X89094Y64814D01*
X89076Y64829D01*
X89054Y64840D01*
X89033Y64849D01*
X89013Y64855D01*
X88994Y64858D01*
X88978Y64862D01*
X88969Y64864D01*
X88965D01*
X88991Y65060D01*
X89048Y65051D01*
D02*
G37*
G36*
X88759Y64264D02*
X88819Y64262D01*
X88874Y64257D01*
X88924Y64251D01*
X88970Y64246D01*
X89011Y64236D01*
X89046Y64229D01*
X89080Y64220D01*
X89107Y64212D01*
X89132Y64203D01*
X89150Y64196D01*
X89167Y64190D01*
X89180Y64183D01*
X89187Y64179D01*
X89193Y64177D01*
X89194Y64175D01*
X89219Y64157D01*
X89241Y64138D01*
X89259Y64118D01*
X89274Y64097D01*
X89289Y64077D01*
X89300Y64059D01*
X89309Y64038D01*
X89317Y64020D01*
X89326Y63984D01*
X89330Y63970D01*
X89332Y63957D01*
Y63947D01*
X89333Y63940D01*
Y63933D01*
X89332Y63905D01*
X89328Y63879D01*
X89320Y63855D01*
X89311Y63833D01*
X89289Y63792D01*
X89263Y63757D01*
X89237Y63729D01*
X89226Y63718D01*
X89215Y63709D01*
X89206Y63701D01*
X89198Y63696D01*
X89194Y63694D01*
X89193Y63692D01*
X89163Y63675D01*
X89130Y63660D01*
X89094Y63649D01*
X89056Y63638D01*
X88972Y63622D01*
X88891Y63610D01*
X88852Y63607D01*
X88815Y63605D01*
X88783Y63601D01*
X88754D01*
X88730Y63599D01*
X88711D01*
X88706D01*
X88700D01*
X88698D01*
X88696D01*
X88632Y63601D01*
X88574Y63603D01*
X88519Y63609D01*
X88470Y63614D01*
X88424Y63622D01*
X88383Y63629D01*
X88348Y63636D01*
X88315Y63646D01*
X88287Y63655D01*
X88263Y63662D01*
X88245Y63670D01*
X88228Y63677D01*
X88215Y63683D01*
X88208Y63688D01*
X88202Y63690D01*
X88200Y63692D01*
X88174Y63710D01*
X88154Y63729D01*
X88133Y63749D01*
X88117Y63770D01*
X88104Y63790D01*
X88093Y63809D01*
X88083Y63829D01*
X88076Y63847D01*
X88065Y63883D01*
X88061Y63897D01*
X88059Y63910D01*
X88058Y63920D01*
Y63934D01*
X88059Y63962D01*
X88063Y63988D01*
X88071Y64012D01*
X88080Y64034D01*
X88102Y64075D01*
X88128Y64110D01*
X88156Y64138D01*
X88167Y64149D01*
X88178Y64159D01*
X88187Y64166D01*
X88195Y64171D01*
X88198Y64173D01*
X88200Y64175D01*
X88230Y64192D01*
X88263Y64205D01*
X88298Y64218D01*
X88337Y64227D01*
X88419Y64244D01*
X88500Y64255D01*
X88539Y64259D01*
X88576Y64260D01*
X88609Y64262D01*
X88637Y64264D01*
X88661Y64266D01*
X88680D01*
X88685D01*
X88691D01*
X88693D01*
X88695D01*
X88759Y64264D01*
D02*
G37*
G36*
X88765Y63466D02*
X88822Y63464D01*
X88874Y63459D01*
X88922Y63453D01*
X88967Y63444D01*
X89006Y63436D01*
X89043Y63427D01*
X89074Y63418D01*
X89102Y63409D01*
X89124Y63399D01*
X89144Y63390D01*
X89161Y63383D01*
X89172Y63377D01*
X89182Y63372D01*
X89187Y63370D01*
X89189Y63368D01*
X89215Y63347D01*
X89237Y63327D01*
X89256Y63307D01*
X89272Y63285D01*
X89287Y63264D01*
X89298Y63242D01*
X89307Y63222D01*
X89315Y63201D01*
X89326Y63166D01*
X89330Y63151D01*
X89332Y63138D01*
Y63127D01*
X89333Y63120D01*
Y63112D01*
X89332Y63086D01*
X89328Y63062D01*
X89322Y63038D01*
X89317Y63016D01*
X89298Y62975D01*
X89278Y62942D01*
X89257Y62914D01*
X89248Y62903D01*
X89239Y62894D01*
X89233Y62886D01*
X89228Y62881D01*
X89224Y62879D01*
X89222Y62877D01*
X89200Y62861D01*
X89176Y62846D01*
X89152Y62833D01*
X89126Y62822D01*
X89074Y62805D01*
X89026Y62792D01*
X89002Y62788D01*
X88982Y62786D01*
X88961Y62785D01*
X88945Y62783D01*
X88932Y62781D01*
X88922D01*
X88915D01*
X88913D01*
X88880Y62783D01*
X88846Y62785D01*
X88817Y62788D01*
X88787Y62796D01*
X88761Y62801D01*
X88737Y62809D01*
X88715Y62818D01*
X88695Y62825D01*
X88676Y62835D01*
X88659Y62842D01*
X88646Y62851D01*
X88635Y62857D01*
X88626Y62862D01*
X88620Y62868D01*
X88617Y62870D01*
X88615Y62872D01*
X88595Y62888D01*
X88578Y62907D01*
X88563Y62923D01*
X88550Y62942D01*
X88539Y62959D01*
X88530Y62977D01*
X88517Y63009D01*
X88508Y63038D01*
X88506Y63049D01*
X88504Y63060D01*
X88502Y63070D01*
Y63081D01*
X88504Y63101D01*
X88506Y63120D01*
X88511Y63138D01*
X88515Y63153D01*
X88520Y63164D01*
X88526Y63175D01*
X88528Y63181D01*
X88530Y63183D01*
X88541Y63199D01*
X88554Y63214D01*
X88567Y63227D01*
X88580Y63240D01*
X88591Y63249D01*
X88600Y63257D01*
X88608Y63262D01*
X88609Y63264D01*
X88570Y63262D01*
X88535Y63259D01*
X88504Y63255D01*
X88476Y63251D01*
X88450Y63248D01*
X88426Y63242D01*
X88406Y63238D01*
X88387Y63233D01*
X88372Y63229D01*
X88359Y63225D01*
X88348Y63220D01*
X88341Y63218D01*
X88333Y63214D01*
X88330Y63212D01*
X88326Y63210D01*
X88302Y63194D01*
X88285Y63175D01*
X88272Y63159D01*
X88265Y63142D01*
X88259Y63127D01*
X88258Y63116D01*
X88256Y63107D01*
Y63105D01*
X88258Y63088D01*
X88261Y63072D01*
X88269Y63059D01*
X88278Y63046D01*
X88300Y63025D01*
X88324Y63012D01*
X88350Y63001D01*
X88372Y62996D01*
X88382Y62994D01*
X88389Y62992D01*
X88393D01*
X88395D01*
X88369Y62801D01*
X88313Y62812D01*
X88267Y62825D01*
X88226Y62842D01*
X88193Y62859D01*
X88169Y62875D01*
X88150Y62888D01*
X88139Y62898D01*
X88135Y62901D01*
X88109Y62931D01*
X88091Y62964D01*
X88076Y62996D01*
X88067Y63027D01*
X88061Y63053D01*
X88059Y63075D01*
X88058Y63083D01*
Y63094D01*
X88059Y63123D01*
X88063Y63153D01*
X88072Y63179D01*
X88082Y63205D01*
X88106Y63251D01*
X88119Y63272D01*
X88133Y63290D01*
X88148Y63307D01*
X88161Y63322D01*
X88174Y63335D01*
X88185Y63346D01*
X88195Y63353D01*
X88202Y63359D01*
X88208Y63362D01*
X88209Y63364D01*
X88239Y63383D01*
X88274Y63397D01*
X88311Y63412D01*
X88350Y63423D01*
X88432Y63442D01*
X88513Y63455D01*
X88552Y63459D01*
X88587Y63462D01*
X88619Y63464D01*
X88648Y63466D01*
X88670Y63468D01*
X88689D01*
X88700D01*
X88702D01*
X88704D01*
X88765Y63466D01*
D02*
G37*
G36*
X89313Y62433D02*
X89072D01*
Y62629D01*
X89313D01*
Y62433D01*
D02*
G37*
G36*
X88759Y62270D02*
X88819Y62268D01*
X88874Y62262D01*
X88924Y62257D01*
X88970Y62251D01*
X89011Y62242D01*
X89046Y62235D01*
X89080Y62225D01*
X89107Y62218D01*
X89132Y62209D01*
X89150Y62201D01*
X89167Y62196D01*
X89180Y62188D01*
X89187Y62185D01*
X89193Y62183D01*
X89194Y62181D01*
X89219Y62162D01*
X89241Y62144D01*
X89259Y62124D01*
X89274Y62103D01*
X89289Y62083D01*
X89300Y62064D01*
X89309Y62044D01*
X89317Y62025D01*
X89326Y61990D01*
X89330Y61975D01*
X89332Y61962D01*
Y61953D01*
X89333Y61946D01*
Y61938D01*
X89332Y61911D01*
X89328Y61885D01*
X89320Y61861D01*
X89311Y61838D01*
X89289Y61798D01*
X89263Y61762D01*
X89237Y61735D01*
X89226Y61724D01*
X89215Y61714D01*
X89206Y61707D01*
X89198Y61701D01*
X89194Y61700D01*
X89193Y61698D01*
X89163Y61681D01*
X89130Y61666D01*
X89094Y61655D01*
X89056Y61644D01*
X88972Y61627D01*
X88891Y61616D01*
X88852Y61612D01*
X88815Y61611D01*
X88783Y61607D01*
X88754D01*
X88730Y61605D01*
X88711D01*
X88706D01*
X88700D01*
X88698D01*
X88696D01*
X88632Y61607D01*
X88574Y61609D01*
X88519Y61614D01*
X88470Y61620D01*
X88424Y61627D01*
X88383Y61635D01*
X88348Y61642D01*
X88315Y61651D01*
X88287Y61661D01*
X88263Y61668D01*
X88245Y61675D01*
X88228Y61683D01*
X88215Y61688D01*
X88208Y61694D01*
X88202Y61696D01*
X88200Y61698D01*
X88174Y61716D01*
X88154Y61735D01*
X88133Y61755D01*
X88117Y61775D01*
X88104Y61796D01*
X88093Y61814D01*
X88083Y61835D01*
X88076Y61853D01*
X88065Y61888D01*
X88061Y61903D01*
X88059Y61916D01*
X88058Y61925D01*
Y61940D01*
X88059Y61968D01*
X88063Y61994D01*
X88071Y62018D01*
X88080Y62040D01*
X88102Y62081D01*
X88128Y62116D01*
X88156Y62144D01*
X88167Y62155D01*
X88178Y62164D01*
X88187Y62172D01*
X88195Y62177D01*
X88198Y62179D01*
X88200Y62181D01*
X88230Y62198D01*
X88263Y62211D01*
X88298Y62224D01*
X88337Y62233D01*
X88419Y62249D01*
X88500Y62261D01*
X88539Y62264D01*
X88576Y62266D01*
X88609Y62268D01*
X88637Y62270D01*
X88661Y62272D01*
X88680D01*
X88685D01*
X88691D01*
X88693D01*
X88695D01*
X88759Y62270D01*
D02*
G37*
G36*
X88565Y61370D02*
X88537Y61320D01*
X88506Y61277D01*
X88476Y61240D01*
X88463Y61224D01*
X88450Y61209D01*
X88437Y61196D01*
X88428Y61187D01*
X88419Y61177D01*
X88413Y61172D01*
X88409Y61168D01*
X88408Y61166D01*
X89313D01*
Y60968D01*
X88058D01*
Y61129D01*
X88098Y61144D01*
X88135Y61163D01*
X88169Y61183D01*
X88196Y61203D01*
X88221Y61222D01*
X88239Y61237D01*
X88250Y61248D01*
X88252Y61250D01*
X88254Y61251D01*
X88283Y61285D01*
X88308Y61316D01*
X88328Y61344D01*
X88345Y61370D01*
X88356Y61392D01*
X88365Y61407D01*
X88369Y61418D01*
X88370Y61420D01*
Y61422D01*
X88589D01*
X88565Y61370D01*
D02*
G37*
G36*
X88515Y60690D02*
X88548Y60689D01*
X88578Y60685D01*
X88606Y60677D01*
X88632Y60672D01*
X88658Y60664D01*
X88680Y60655D01*
X88698Y60648D01*
X88717Y60639D01*
X88733Y60631D01*
X88746Y60624D01*
X88757Y60616D01*
X88767Y60611D01*
X88772Y60607D01*
X88776Y60605D01*
X88778Y60603D01*
X88798Y60587D01*
X88815Y60568D01*
X88830Y60550D01*
X88843Y60533D01*
X88852Y60514D01*
X88861Y60498D01*
X88874Y60466D01*
X88883Y60437D01*
X88885Y60426D01*
X88887Y60416D01*
X88889Y60407D01*
Y60396D01*
X88887Y60376D01*
X88885Y60355D01*
X88882Y60339D01*
X88876Y60322D01*
X88870Y60311D01*
X88867Y60300D01*
X88865Y60294D01*
X88863Y60292D01*
X88852Y60276D01*
X88839Y60259D01*
X88828Y60246D01*
X88815Y60233D01*
X88804Y60224D01*
X88795Y60214D01*
X88787Y60211D01*
X88785Y60209D01*
X88822Y60211D01*
X88857Y60214D01*
X88889Y60218D01*
X88919Y60224D01*
X88945Y60227D01*
X88967Y60233D01*
X88987Y60237D01*
X89006Y60242D01*
X89020Y60246D01*
X89033Y60250D01*
X89045Y60253D01*
X89052Y60257D01*
X89059Y60261D01*
X89063Y60263D01*
X89067Y60264D01*
X89089Y60281D01*
X89106Y60298D01*
X89119Y60316D01*
X89126Y60333D01*
X89132Y60348D01*
X89133Y60359D01*
X89135Y60366D01*
Y60370D01*
X89133Y60387D01*
X89130Y60403D01*
X89122Y60416D01*
X89113Y60429D01*
X89091Y60448D01*
X89065Y60463D01*
X89041Y60472D01*
X89019Y60477D01*
X89009Y60479D01*
X89002Y60481D01*
X88998D01*
X88996D01*
X89022Y60672D01*
X89052Y60668D01*
X89078Y60663D01*
X89104Y60655D01*
X89126Y60648D01*
X89148Y60640D01*
X89167Y60633D01*
X89183Y60624D01*
X89200Y60616D01*
X89213Y60609D01*
X89224Y60601D01*
X89243Y60589D01*
X89254Y60579D01*
X89257Y60576D01*
X89283Y60546D01*
X89302Y60513D01*
X89315Y60481D01*
X89324Y60451D01*
X89330Y60424D01*
X89332Y60402D01*
X89333Y60394D01*
Y60383D01*
X89332Y60352D01*
X89326Y60324D01*
X89319Y60296D01*
X89309Y60270D01*
X89285Y60224D01*
X89272Y60203D01*
X89257Y60185D01*
X89244Y60168D01*
X89232Y60153D01*
X89219Y60140D01*
X89207Y60129D01*
X89196Y60122D01*
X89189Y60116D01*
X89185Y60113D01*
X89183Y60111D01*
X89154Y60092D01*
X89119Y60076D01*
X89082Y60063D01*
X89043Y60050D01*
X89002Y60039D01*
X88961Y60031D01*
X88880Y60018D01*
X88841Y60015D01*
X88806Y60011D01*
X88774Y60009D01*
X88745Y60007D01*
X88722Y60005D01*
X88704D01*
X88693D01*
X88691D01*
X88689D01*
X88628Y60007D01*
X88570Y60009D01*
X88519Y60015D01*
X88470Y60022D01*
X88426Y60029D01*
X88387Y60037D01*
X88350Y60046D01*
X88319Y60055D01*
X88291Y60066D01*
X88269Y60076D01*
X88248Y60083D01*
X88232Y60090D01*
X88219Y60098D01*
X88211Y60103D01*
X88206Y60105D01*
X88204Y60107D01*
X88178Y60127D01*
X88156Y60148D01*
X88135Y60168D01*
X88119Y60190D01*
X88106Y60213D01*
X88093Y60233D01*
X88083Y60253D01*
X88076Y60274D01*
X88065Y60309D01*
X88061Y60326D01*
X88059Y60339D01*
X88058Y60350D01*
Y60364D01*
X88059Y60390D01*
X88063Y60414D01*
X88069Y60437D01*
X88076Y60459D01*
X88095Y60500D01*
X88115Y60533D01*
X88135Y60561D01*
X88146Y60572D01*
X88154Y60581D01*
X88161Y60589D01*
X88167Y60594D01*
X88171Y60596D01*
X88172Y60598D01*
X88195Y60614D01*
X88219Y60629D01*
X88243Y60642D01*
X88269Y60651D01*
X88321Y60670D01*
X88369Y60681D01*
X88393Y60685D01*
X88413Y60687D01*
X88433Y60689D01*
X88448Y60690D01*
X88463Y60692D01*
X88472D01*
X88480D01*
X88482D01*
X88515Y60690D01*
D02*
G37*
%LPC*%
G36*
X89102Y71356D02*
X88770D01*
Y71130D01*
X88772Y71093D01*
X88778Y71062D01*
X88785Y71034D01*
X88796Y71010D01*
X88809Y70989D01*
X88824Y70973D01*
X88839Y70958D01*
X88856Y70947D01*
X88872Y70937D01*
X88887Y70932D01*
X88902Y70926D01*
X88915Y70924D01*
X88924Y70923D01*
X88933Y70921D01*
X88939D01*
X88941D01*
X88961Y70923D01*
X88980Y70924D01*
X88996Y70930D01*
X89011Y70936D01*
X89022Y70941D01*
X89032Y70945D01*
X89037Y70949D01*
X89039Y70950D01*
X89052Y70962D01*
X89065Y70973D01*
X89072Y70984D01*
X89080Y70995D01*
X89085Y71004D01*
X89089Y71010D01*
X89091Y71015D01*
Y71017D01*
X89094Y71034D01*
X89096Y71052D01*
X89100Y71091D01*
X89102Y71110D01*
Y71356D01*
D02*
G37*
G36*
X88743Y64059D02*
X88722D01*
X88709D01*
X88700D01*
X88696D01*
X88645D01*
X88598Y64057D01*
X88558Y64055D01*
X88520Y64053D01*
X88487Y64051D01*
X88458Y64047D01*
X88432Y64046D01*
X88409Y64042D01*
X88391Y64038D01*
X88374Y64036D01*
X88361Y64033D01*
X88352Y64031D01*
X88345Y64029D01*
X88339Y64027D01*
X88335Y64025D01*
X88309Y64012D01*
X88291Y63997D01*
X88276Y63981D01*
X88267Y63966D01*
X88261Y63953D01*
X88259Y63942D01*
X88258Y63934D01*
Y63933D01*
X88261Y63912D01*
X88271Y63894D01*
X88282Y63879D01*
X88296Y63866D01*
X88311Y63855D01*
X88322Y63847D01*
X88332Y63844D01*
X88335Y63842D01*
X88352Y63836D01*
X88372Y63831D01*
X88396Y63825D01*
X88424Y63822D01*
X88452Y63818D01*
X88483Y63816D01*
X88545Y63810D01*
X88574D01*
X88602Y63809D01*
X88628D01*
X88650Y63807D01*
X88669D01*
X88683D01*
X88693D01*
X88696D01*
X88748D01*
X88795Y63809D01*
X88835Y63810D01*
X88872Y63812D01*
X88906Y63814D01*
X88935Y63818D01*
X88961Y63822D01*
X88983Y63823D01*
X89002Y63827D01*
X89019Y63831D01*
X89032Y63834D01*
X89041Y63836D01*
X89048Y63838D01*
X89054Y63840D01*
X89056Y63842D01*
X89057D01*
X89083Y63855D01*
X89102Y63870D01*
X89115Y63884D01*
X89124Y63899D01*
X89130Y63912D01*
X89132Y63923D01*
X89133Y63931D01*
Y63933D01*
X89130Y63953D01*
X89122Y63972D01*
X89109Y63988D01*
X89094Y64001D01*
X89082Y64012D01*
X89069Y64020D01*
X89061Y64023D01*
X89057Y64025D01*
X89041Y64031D01*
X89020Y64036D01*
X88996Y64040D01*
X88969Y64044D01*
X88941Y64047D01*
X88909Y64051D01*
X88848Y64055D01*
X88819D01*
X88791Y64057D01*
X88765D01*
X88743Y64059D01*
D02*
G37*
G36*
X88911Y63246D02*
X88904D01*
X88898D01*
X88895D01*
X88893D01*
X88856Y63244D01*
X88822Y63240D01*
X88796Y63233D01*
X88774Y63225D01*
X88756Y63220D01*
X88743Y63212D01*
X88735Y63209D01*
X88733Y63207D01*
X88715Y63192D01*
X88702Y63175D01*
X88693Y63159D01*
X88687Y63144D01*
X88682Y63131D01*
X88680Y63120D01*
Y63110D01*
X88682Y63090D01*
X88689Y63072D01*
X88698Y63055D01*
X88707Y63040D01*
X88719Y63029D01*
X88728Y63022D01*
X88735Y63016D01*
X88737Y63014D01*
X88761Y63001D01*
X88787Y62990D01*
X88817Y62983D01*
X88846Y62979D01*
X88872Y62975D01*
X88893Y62973D01*
X88902D01*
X88907D01*
X88911D01*
X88913D01*
X88954Y62975D01*
X88989Y62979D01*
X89019Y62985D01*
X89043Y62992D01*
X89061Y62999D01*
X89074Y63005D01*
X89082Y63009D01*
X89083Y63011D01*
X89100Y63025D01*
X89113Y63040D01*
X89120Y63055D01*
X89128Y63070D01*
X89132Y63083D01*
X89133Y63092D01*
Y63101D01*
X89132Y63122D01*
X89124Y63142D01*
X89115Y63159D01*
X89102Y63173D01*
X89091Y63186D01*
X89082Y63196D01*
X89074Y63201D01*
X89072Y63203D01*
X89046Y63218D01*
X89017Y63227D01*
X88987Y63235D01*
X88959Y63240D01*
X88933Y63244D01*
X88911Y63246D01*
D02*
G37*
G36*
X88743Y62064D02*
X88722D01*
X88709D01*
X88700D01*
X88696D01*
X88645D01*
X88598Y62062D01*
X88558Y62061D01*
X88520Y62059D01*
X88487Y62057D01*
X88458Y62053D01*
X88432Y62051D01*
X88409Y62048D01*
X88391Y62044D01*
X88374Y62042D01*
X88361Y62038D01*
X88352Y62037D01*
X88345Y62035D01*
X88339Y62033D01*
X88335Y62031D01*
X88309Y62018D01*
X88291Y62003D01*
X88276Y61987D01*
X88267Y61972D01*
X88261Y61959D01*
X88259Y61948D01*
X88258Y61940D01*
Y61938D01*
X88261Y61918D01*
X88271Y61900D01*
X88282Y61885D01*
X88296Y61872D01*
X88311Y61861D01*
X88322Y61853D01*
X88332Y61850D01*
X88335Y61848D01*
X88352Y61842D01*
X88372Y61837D01*
X88396Y61831D01*
X88424Y61827D01*
X88452Y61824D01*
X88483Y61822D01*
X88545Y61816D01*
X88574D01*
X88602Y61814D01*
X88628D01*
X88650Y61812D01*
X88669D01*
X88683D01*
X88693D01*
X88696D01*
X88748D01*
X88795Y61814D01*
X88835Y61816D01*
X88872Y61818D01*
X88906Y61820D01*
X88935Y61824D01*
X88961Y61827D01*
X88983Y61829D01*
X89002Y61833D01*
X89019Y61837D01*
X89032Y61840D01*
X89041Y61842D01*
X89048Y61844D01*
X89054Y61846D01*
X89056Y61848D01*
X89057D01*
X89083Y61861D01*
X89102Y61875D01*
X89115Y61890D01*
X89124Y61905D01*
X89130Y61918D01*
X89132Y61929D01*
X89133Y61937D01*
Y61938D01*
X89130Y61959D01*
X89122Y61977D01*
X89109Y61994D01*
X89094Y62007D01*
X89082Y62018D01*
X89069Y62025D01*
X89061Y62029D01*
X89057Y62031D01*
X89041Y62037D01*
X89020Y62042D01*
X88996Y62046D01*
X88969Y62049D01*
X88941Y62053D01*
X88909Y62057D01*
X88848Y62061D01*
X88819D01*
X88791Y62062D01*
X88765D01*
X88743Y62064D01*
D02*
G37*
G36*
X88502Y60500D02*
X88493D01*
X88487D01*
X88483D01*
X88482D01*
X88439Y60498D01*
X88404Y60494D01*
X88374Y60489D01*
X88350Y60481D01*
X88332Y60476D01*
X88319Y60470D01*
X88311Y60466D01*
X88309Y60464D01*
X88293Y60450D01*
X88280Y60435D01*
X88271Y60418D01*
X88263Y60403D01*
X88259Y60392D01*
X88258Y60381D01*
Y60372D01*
X88259Y60352D01*
X88267Y60333D01*
X88278Y60316D01*
X88289Y60302D01*
X88300Y60289D01*
X88311Y60279D01*
X88319Y60274D01*
X88321Y60272D01*
X88346Y60257D01*
X88374Y60246D01*
X88406Y60237D01*
X88433Y60231D01*
X88459Y60227D01*
X88482Y60226D01*
X88489D01*
X88495D01*
X88498D01*
X88500D01*
X88537Y60227D01*
X88570Y60231D01*
X88598Y60239D01*
X88620Y60246D01*
X88639Y60253D01*
X88652Y60261D01*
X88659Y60264D01*
X88661Y60266D01*
X88678Y60283D01*
X88691Y60298D01*
X88700Y60314D01*
X88706Y60329D01*
X88709Y60342D01*
X88713Y60353D01*
Y60363D01*
X88711Y60383D01*
X88704Y60402D01*
X88695Y60418D01*
X88685Y60433D01*
X88674Y60444D01*
X88667Y60453D01*
X88659Y60459D01*
X88658Y60461D01*
X88633Y60474D01*
X88606Y60483D01*
X88578Y60490D01*
X88548Y60494D01*
X88522Y60498D01*
X88502Y60500D01*
D02*
G37*
%LPD*%
M02*
