M48
;Layer_Color=9474304
;FILE_FORMAT=4:3
METRIC,LZ
;TYPE=PLATED
T1F00S00C0.300
T2F00S00C0.630
T3F00S00C1.000
T4F00S00C1.400
T5F00S00C2.700
%
T01
X0009Y0003
X0012
X0015
X0018
X0021
X0024
X0027
X00255Y0006
X0027Y0009
X003
X0033
X0036
X00345Y0006
X00315
Y0012
X0033Y0015
X0036
X00345Y0018
X00315
X0033Y0021
X0036
X003
X0027
X00252Y00243
X00232
X0021Y0027
X00217Y00291
X00225Y003
X00217Y0031
X0022Y00334
X0021
X0023
X0024
X00247Y00343
Y00353
X0024Y00362
X0023
X0022
X0021
X0021Y0039
X0015
X0012
X0009
X0006
X00075Y0036
X00105
X00135
X0012Y0033
X0009
X0006
X00075Y003
X00105
X00135
X00165
X0015Y0027
X0012
X0009
X0006
X000491Y00229
X000341
X000551Y00215
X000561Y00179
X000431Y00171
Y00188
X000691Y0017
X0006Y0015
X0003
X00045Y0012
X00075
X00105
X00114Y00131
X00135Y0012
X00165
X0018Y0015
X0021
X0024
X0027
X003
X00255Y0012
X00225
X0024Y0009
X0021
X0015
X0012
X0009
X0006
X0003
X00105Y0006
X00135
X0015Y0015
X001571Y00176
X001381Y00177
X001271Y00187
Y00166
X001151Y00177
X001021Y00187
X001041Y00201
X000951
Y00211
Y0022
X00104Y0022
X001041Y00211
X001131
Y0022
Y00229
X001041
X000951
Y00239
X001041
X001131
Y00201
X001591Y00194
X001581Y00212
X001571Y00229
X0021Y0021
X00245Y00282
X00251Y00288
X00237Y00292
X00285Y003
X003Y0027
X0033
X0039
X0036Y0033
X0033
X00345Y0036
X00352Y00378
Y00386
Y00394
X0031Y00377
X00277Y00377
X00275Y00385
X00276Y00359
X00269Y00357
X00274Y00352
X0027Y0033
X0029Y00246
X0036Y0003
X0045
X00435Y0006
X0042Y0009
X0045Y0015
X0051
X0054
X0057
X006
X0063
X0066
X00675Y0018
X00705
X00735
X00765
X0078Y0015
X0075
X0072
X00735Y0012
X00765
X0078Y0009
X0075
X0072
Y0003
X0075
X0078
X00765Y0006
X0069Y0003
X0066
X0063
X006
X00615Y0006
X00645
X0066Y0009
X0063
X006
X0057
X005775Y000775
X00585Y0006
X00555
X00525
X00495
Y0012
X00525
X0054Y0009
Y0003
X00615Y0012
X00645
X00675
X00645Y0018
X00615
X00585
X00555
X00525
X0054Y0021
X0051
X0048
X0045
X0042
X0041375Y0027275
X0043275
X0045Y0027
X00463Y00274
X00483
X00497Y00281
X00505
X00513
X00509Y00287
X00501
X00493
X00491Y00297
X00457
X00454Y00305
X00434Y00307
X00438Y00296
X00405Y00297
X00414Y003105
X00429Y00348
X00424Y00355
X0043Y003875
X00425Y00395
X00455Y0039125
X0046275Y00393
X0047Y00392
X00478Y00389
X00485Y00385
X0045Y00386
X00465Y0036
X00467Y00323
X0048Y0033
X0045
X00531Y00347
Y00355
X00542Y00395
X00552
X00516Y00394
X00592Y00361
Y00354
X00601
Y00361
X006Y0033
X0063
X0066
X0069
X0072
X0075
X0078
X00765Y003
X00705
X00675
X0069Y0027
X0072
Y0021
X00677Y00211
X00674Y00225
X00636Y00243
Y00253
X00627Y00259
X00611
X00604Y00253
X00596Y00259
X00582
X00573Y00254
X00572Y00243
X0057Y0027
X006
X00615Y003
X00585
X00555
X00525Y0024
X00495
X00625Y00377
Y00396
X00676Y00374
X00773Y00248
X00765Y00226
X00806Y0024
Y00248
Y00255
Y00271
Y00279
Y00287
X0081Y00293
X00818Y00294
X00826
X00832Y00289
X00833Y00282
Y00275
Y00268
X0084Y0027
X00832Y00249
Y00242
X00831Y00235
X00855Y0024
X00885
X0087Y0027
X00885Y003
X00855
X0087Y0033
X0084
X0081
X0082Y00353
X00827
X00824Y00359
X00855Y0036
X00885
X0087Y0039
X00795Y003
X0084Y0021
X0087
X00885Y0018
X00855
X0087Y0015
X0084
X0081
X00825Y0012
X00855
X00885
X0087Y0009
X0084
X0081
X00795Y0012
Y0006
X0081Y0003
X0084Y0045
X0087
X00885Y0048
X0087Y0051
X00885Y0054
X00855
X0087Y0057
X0084
X00855Y006
X00885
X0087Y0063
X00885Y0066
X00855
X0087Y0069
X00885Y0072
X00855
Y0078
X00885
Y0042
X00743Y00418
X00694Y00416
X00687
X00675Y0042
X00677Y00436
X00694Y00432
X00676Y00465
X00675Y0048
X00688Y00481
Y00488
X00694Y00484
X00677Y005
X00678Y0053
X00675Y0054
X00645
X00625Y0052422
Y00506
X00645Y0048
X00624Y0046
Y00441
X00645Y0042
X00675Y004
X00557Y00404
X00547
X00565Y00437
X00574Y00433
X00583Y00431
X00581Y00442
X00579Y00451
X00572Y00444
X00542Y00457
Y00465
X00555Y0048
X00514Y00482
X00508Y00476
X00499Y00471
X00492
X00494Y00478
X00487
X00498Y00491
X005035Y004855
X00507Y00499
X00498Y00503
X00493Y00497
X00502Y0051
X00547Y00528
Y00536
X00555Y00544
Y00551
X00562
Y00544
X00566Y00565
X00564Y00573
X00572Y00572
X0055Y0056
X00597Y00547
X00592Y0054
X00601Y00539
X0063Y0057
X00645Y006
X00675
X0069Y0063
X0072
X0075
X00735Y0066
X00705
X00675
X00645
X0066Y0069
X0069
X00686Y007079
Y007189
Y007299
Y007409
X00678Y007349
Y007239
Y007129
X00645Y0072
X00615
X00585
Y0066
Y006
X00615
X0066Y0063
X0072Y0069
X00714Y007079
Y007189
Y007299
Y007409
X00722Y007349
Y007239
Y007129
X00735Y0072
X0075Y0075
X0072
X00735Y0078
X00765
X0075Y0069
Y0057
X0078
X0072
X00743Y00483
X00514Y00458
X00509Y00452
X0050463Y0044588
X00503Y00434
X00498Y00426
X00493Y00419
X00487Y00427
X00488Y00436
X00478Y00444
X0047Y0045
X00461Y00455
X00453Y0046
X00445Y00465
X00437Y00469
X00429Y00472
X00422Y00476
X00426Y00506
Y00514
X00434
X00435Y0054
X004165Y0054275
X0041625Y005495
X00415Y005605
X0041675Y00567
X00446Y00565
X00454
Y00556
X00446
X00465Y0054
Y006
X00495
X0048Y0063
X0045
X0042
X00435Y0066
X00465
X00495
X0048Y0069
X0045
X0042
X00428Y007129
Y007239
Y007349
X00436Y007299
Y007409
Y007189
Y007079
X00464
Y007189
Y007299
Y007409
X00472Y007349
Y007239
Y007129
X0048Y0075
X00495Y0078
X00575Y007799
Y007724
Y007874
X00405Y0066
Y006
X00435
X0042Y00426
X00425Y0042
X00431Y00414
X00437Y00408
X00442Y00402
X0042Y004025
X0041Y0041
X00399Y0041
X004025Y0042
X00408Y00428
X00357Y00426
X00359Y00434
X00358Y004
X00324Y0042
X00323Y00427
X00324Y00434
X00323Y00463
X00324Y0047
X003Y0045
X00271Y00446
Y0043925
Y0045925
Y00466
X00245Y00456
Y00449
X00235
Y00456
Y00488
X00245
X0027Y0051
X003
X00323Y00523
X00319Y00529
X00327
X00321Y00549
X00285Y0054
X00237Y00562
X00225Y006
X00195
X00165
X0018Y0063
X0021
X00195Y0066
X00165
X0018Y0069
X00186Y007079
Y007189
Y007299
Y007409
X00178Y007349
Y007239
Y007129
X00165Y0072
X0015Y0075
X0021
X00214Y007409
Y007299
Y007189
Y007079
X00222Y007129
Y007239
Y007349
X0021Y0069
X0015
Y0063
X0012Y0057
X0009
X00105Y0054
X0012Y0051
X0009
Y0045
X0012
X00151Y00456
X00162
X00145Y00466
Y00477
X00135Y0048
X0015Y00487
X00163Y00488
X0015Y00519
X00187Y00532
X00194
X00201
X00208
X00215
X00236Y00417
X00244
X00165Y0042
X00135
X00368Y0051825
X00376Y005185
X0036725Y00526
X00375Y006
X0039Y0063
X00375Y0066
X0039Y0069
X00375Y0072
X0039Y0075
X00325Y007724
Y007799
Y007874
X00285Y0072
X00315Y006
X00325Y007949
Y008024
X00175Y008019
Y007939
X00167
Y008019
X00417
Y007939
X00425
Y008019
X00575Y008024
Y007949
X00667Y007939
Y008019
X00675
Y007939
X0075Y0081
X0078
X00765Y0084
X00735
X0075Y0087
X0078
X0081
X00795Y0084
X0081Y0081
X0084
X0087
T02
X002955Y004281
Y004769
T03
X0017501Y0006137
X0020001
X0022501
X003865Y0004
X004119
X004373
X004627
X004881
X005135
X006625Y0006138
X006875
X007125
X007375
X007986Y0038
X00824
X0084945Y0038005
Y0040805
X00824Y00408
X007986
Y00436
X00824
X0084945Y0043605
Y0046405
X00824Y00464
X007986
Y00492
X00824
X0084945Y0049205
X0084945Y0052005
X00824Y0052
X007986
X008Y006111
Y006365
Y006619
Y006873
Y007127
Y007381
Y007635
Y007889
X006
Y007635
Y007381
Y007127
Y006873
Y006619
Y006365
Y006111
X0055
Y006365
Y006619
Y006873
Y007127
Y007381
Y007635
Y007889
X0035
Y007635
Y007381
Y007127
Y006873
Y006619
Y006365
Y006111
X003
Y006365
Y006619
Y006873
Y007127
Y007381
Y007635
Y007889
X001
Y007635
Y007381
Y007127
Y006873
Y006619
Y006365
Y006111
T04
X000535Y00429
Y00471
X001085
Y00429
T05
X00045Y00045
X00855
X00045Y00855
X00855
M30
